<svg width="322" height="322" viewBox="0 0 322 322" fill="none" xmlns="http://www.w3.org/2000/svg">
<path d="M124.645 183.134H197.355V254.484H124.645V183.134Z" fill="#E2A975"/>
<path d="M171.387 322H150.613L140.226 249.29H181.774L171.387 322Z" fill="#F4DBB3"/>
<path d="M93.4838 207.742L62.2806 219.088L60.3354 220.025C45.9686 225.25 41.8223 245.273 41.8223 253.98V311.613L46.7422 322H72.7097L78.1944 316.969L83.0974 322H150.614V269.232L93.4838 207.742Z" fill="#FF8086"/>
<path d="M124.645 183.134C135.503 188.877 147.862 192.161 161 192.161C174.138 192.161 186.497 188.877 197.355 183.134V161H124.645V183.134Z" fill="#D19A6E"/>
<path d="M93.4838 51.9357H41.5487C38.6802 51.9357 36.3552 54.2607 36.3552 57.1292C36.3552 59.9976 38.6802 62.3227 41.5487 62.3227H93.4844V51.9357H93.4838Z" fill="#DB4655"/>
<path d="M231.113 93.4838H228.516V62.3228H102.931L100.625 119.452C103.285 154.305 125.466 181.125 161 181.125C164.6 181.125 168.134 181.492 171.58 180.95C202.152 176.133 225.863 150.774 228.254 119.452H231.113C238.284 119.452 244.097 113.638 244.097 106.468C244.097 99.2968 238.284 93.4838 231.113 93.4838Z" fill="#ECBD83"/>
<path d="M114.258 114.258V62.3228H93.4837V93.4838H90.887C83.7162 93.4838 77.9032 99.2968 77.9032 106.468C77.9032 113.638 83.7162 119.451 90.887 119.451H93.746C96.4062 154.305 125.465 181.774 161 181.774C164.553 181.774 168.177 181.478 171.58 180.949C139.22 175.955 114.258 148.016 114.258 114.258Z" fill="#E2A975"/>
<path d="M93.4838 51.9357L114.259 91.426C149.231 84.4791 171.387 62.3227 171.387 62.3227L175.32 78.0529C176.03 80.8949 178.919 82.5993 181.738 81.8043C190.106 79.4447 206.842 73.609 218.129 62.3227V83.0967C218.129 88.8336 222.779 93.4837 228.516 93.4837C234.252 93.4837 238.903 88.8336 238.903 83.0967V62.3227L230.022 51.9357H93.4838Z" fill="#6E4848"/>
<path d="M114.258 51.9357H93.4838L83.0967 62.3227V83.0967C83.0967 88.743 87.6211 93.4718 93.2674 93.4831C100.694 93.4982 107.677 92.7366 114.258 91.4259V51.9357H114.258Z" fill="#643C3E"/>
<path d="M237.867 41.5481C233.056 17.8421 212.094 0 186.968 0H166.194C118.863 0 104.713 23.2526 104.713 51.9357L114.258 62.3227H202.548L237.867 41.5481Z" fill="#FF8086"/>
<path d="M135.032 109.064C132.161 109.064 129.839 106.741 129.839 103.871V98.6773C129.839 95.8095 132.162 93.4838 135.032 93.4838C137.903 93.4838 140.226 95.8095 140.226 98.6773V103.871C140.226 106.742 137.903 109.064 135.032 109.064Z" fill="#785353"/>
<path d="M186.968 109.064C184.097 109.064 181.774 106.741 181.774 103.871V98.6773C181.774 95.8095 184.097 93.4838 186.968 93.4838C189.838 93.4838 192.161 95.8095 192.161 98.6773V103.871C192.161 106.742 189.838 109.064 186.968 109.064Z" fill="#785353"/>
<path d="M150.613 240.203C150.613 235.502 148.451 231.064 144.802 228.099C132.333 217.967 124.874 206.996 121.556 201.29C120.257 199.056 117.54 198.119 115.141 199.079L93.4838 207.742C93.4838 207.742 110.023 243.781 150.613 269.232V240.203Z" fill="#F5EBCD"/>
<path d="M161 145.419C152.738 145.419 144.993 143.36 138.593 139.47C136.143 137.979 135.362 134.783 136.853 132.334C138.344 129.884 141.54 129.098 143.989 130.594C153.403 136.315 168.598 136.315 178.011 130.594C180.466 129.103 183.661 129.889 185.147 132.334C186.639 134.783 185.858 137.979 183.408 139.47C177.007 143.36 169.262 145.419 161 145.419Z" fill="#C38C66"/>
<path d="M166.193 0H135.032C106.349 0 83.0967 23.2519 83.0967 51.9357V62.3227H114.258V51.9357C114.258 23.2519 137.51 0 166.193 0V0Z" fill="#E5646E"/>
<path d="M237.867 41.5487H212.936C207.199 41.5487 202.549 46.1988 202.549 51.9357V62.3227H238.903V51.9357C238.903 48.378 238.549 44.9052 237.867 41.5487Z" fill="#E5646E"/>
<path d="M46.7422 248.787C46.7422 236.742 52.7357 225.781 62.2812 219.088L60.2863 219.813C45.9189 225.038 36.3552 238.692 36.3552 253.98V311.613C36.3552 317.349 41.0059 322 46.7422 322V248.787Z" fill="#E5646E"/>
<path d="M83.0967 322H72.7097V285.645C72.7097 282.777 75.0348 280.452 77.9032 280.452C80.7717 280.452 83.0967 282.777 83.0967 285.645V322Z" fill="#E5646E"/>
<path d="M228.516 207.742L261.714 219.814C276.082 225.038 285.645 238.693 285.645 253.98V311.613C285.645 317.35 280.995 322 275.258 322H249.291L243.859 317.912L238.904 322H171.387V269.232L228.516 207.742Z" fill="#FF8086"/>
<path d="M171.387 240.203C171.387 235.502 173.549 231.064 177.198 228.099C189.667 217.967 197.126 206.996 200.444 201.29C201.743 199.056 204.46 198.119 206.859 199.079L228.516 207.742C228.516 207.742 211.977 243.781 171.387 269.232V240.203Z" fill="#F5EBCD"/>
<path d="M238.903 322H249.29V285.645C249.29 282.777 246.965 280.452 244.097 280.452C241.228 280.452 238.903 282.777 238.903 285.645V322Z" fill="#E5646E"/>
</svg>
