<svg width="1023" height="814" viewBox="0 0 1023 814" fill="none" xmlns="http://www.w3.org/2000/svg">
<g clip-path="url(#clip0)">
<path opacity="0.1" d="M177.82 216.08C177.82 216.08 215.82 213.79 211.38 240.45C211.38 240.45 212.27 245.16 208 247.3C208 247.3 207.93 245.3 204.1 245.99C202.733 246.219 201.343 246.286 199.96 246.19C198.113 246.054 196.359 245.324 194.96 244.11V244.11C194.96 244.11 184.26 239.69 180.11 222.21C180.11 222.21 177.03 218.4 177.11 217.42L183.53 220.16C183.53 220.16 181.34 224.79 183.06 228.64C183.06 228.64 183.27 220.33 184.5 220.52C184.75 220.52 187.84 222.13 187.84 222.13C187.84 222.13 184.07 230.2 186.91 236.06C186.91 236.06 185.83 226.12 189.02 222.71L193.54 225.35C193.54 225.35 189.13 233.68 192.12 240.48C192.12 240.48 191.35 230.05 194.49 225.99L198.58 229.19C198.58 229.19 194.44 237.4 196.97 243.04C196.97 243.04 197.3 230.9 199.47 229.98C199.47 229.98 203.05 233.14 203.6 234.44C203.6 234.44 200.76 240.44 202.52 243.55C202.52 243.55 203.6 235.46 204.52 235.42C204.52 235.42 208.09 240.78 208.46 244.42C208.287 241.025 207.225 237.735 205.38 234.88C207.44 235.27 209.341 236.254 210.85 237.71C210.85 237.71 210.29 233.92 204.5 233.59C204.5 233.59 201.55 229.52 200.76 229.27C200.76 229.27 206.52 228.79 210.02 230.34C210.02 230.34 206.94 226.77 199.71 228.34L195.71 225.04C195.71 225.04 203.3 224.04 206.51 225.15C206.51 225.15 202.81 221.99 194.62 224.29L190.22 221.66C190.22 221.66 196.69 220.27 200.54 220.77C200.54 220.77 196.48 218.58 188.93 220.95L185.78 219.54C185.78 219.54 190.52 218.61 191.91 218.46C193.3 218.31 193.37 217.93 193.37 217.93C190.368 217.431 187.286 217.777 184.47 218.93C184.47 218.93 177.7 216.5 177.82 216.08Z" fill="#1976D2"/>
<path opacity="0.1" d="M648.42 271.2C648.42 271.2 664.98 236.87 686.06 253.79C686.06 253.79 690.61 255.31 690.39 260.08C690.39 260.08 688.64 259.17 687.39 262.85C686.923 264.151 686.306 265.393 685.55 266.55C684.527 268.119 683.021 269.312 681.26 269.95C681.26 269.95 672.19 277.13 654.9 272.23C654.9 272.23 650.07 273.06 649.28 272.48L654.8 268.21C654.8 268.21 657.8 272.38 661.98 272.75C661.98 272.75 654.82 268.52 655.59 267.54C655.75 267.34 658.59 265.41 658.59 265.41C658.59 265.41 663.8 272.64 670.3 273.01C670.3 273.01 661.1 269.11 659.68 264.66L664.18 262C664.18 262 669.31 269.92 676.7 270.62C676.7 270.62 667.22 266.21 665.21 261.49L669.99 259.49C669.99 259.49 675.14 267.11 681.3 267.66C681.3 267.66 670.86 261.45 671.12 259.1C671.12 259.1 675.63 257.52 677.03 257.67C677.03 257.67 680.85 263.06 684.45 263.06C684.45 263.06 677.92 258.17 678.32 257.38C678.32 257.38 684.74 256.88 688.12 258.38C685.074 256.866 681.685 256.177 678.29 256.38C679.637 254.774 681.423 253.596 683.43 252.99C683.43 252.99 679.85 251.63 676.74 256.52C676.74 256.52 671.74 257.11 671.15 257.68C671.15 257.68 673.54 252.42 676.59 250.13C676.59 250.13 671.97 251.06 669.86 258.13L665.01 260.05C665.01 260.05 667.8 252.93 670.37 250.68C670.37 250.68 665.81 252.37 663.82 260.68L659.38 263.24C659.38 263.24 661.31 256.91 663.63 253.8C663.63 253.8 659.74 256.28 658.13 264.02L655.36 266.08C655.36 266.08 656.86 261.49 657.36 260.21C657.86 258.93 657.61 258.67 657.61 258.67C655.708 261.044 654.503 263.901 654.13 266.92C654.13 266.92 648.78 271.5 648.42 271.2Z" fill="#1976D2"/>
<path opacity="0.1" d="M264.64 167.58C264.64 167.58 281.19 133.25 302.28 150.17C302.28 150.17 306.82 151.69 306.61 156.46C306.61 156.46 304.85 155.56 303.61 159.23C303.144 160.536 302.523 161.782 301.76 162.94C300.741 164.506 299.238 165.696 297.48 166.33V166.33C297.48 166.33 288.4 173.51 271.12 168.62C271.12 168.62 266.29 169.44 265.49 168.86L270.98 164.58C270.98 164.58 273.98 168.76 278.15 169.13C278.15 169.13 271 164.89 271.77 163.91C271.93 163.71 274.77 161.78 274.77 161.78C274.77 161.78 279.97 169.01 286.48 169.38C286.48 169.38 277.27 165.48 275.85 161.04L280.42 158.4C280.42 158.4 285.54 166.31 292.94 167.02C292.94 167.02 283.46 162.6 281.44 157.88L286.23 155.88C286.23 155.88 291.38 163.51 297.53 164.05C297.53 164.05 287.1 157.84 287.36 155.5C287.36 155.5 291.86 153.91 293.26 154.07C293.26 154.07 297.08 159.45 300.69 159.45C300.69 159.45 294.15 154.56 294.55 153.77C294.55 153.77 300.97 153.27 304.36 154.77C301.315 153.256 297.925 152.566 294.53 152.77C295.872 151.163 297.656 149.984 299.66 149.38C299.66 149.38 296.08 148.02 292.97 152.91C292.97 152.91 287.97 153.51 287.38 154.08C287.38 154.08 289.77 148.81 292.83 146.52C292.83 146.52 288.21 147.46 286.1 154.57L281.24 156.49C281.24 156.49 284.03 149.36 286.6 147.11C286.6 147.11 282.04 148.8 280.06 157.11L275.61 159.67C275.61 159.67 277.55 153.35 279.87 150.23C279.87 150.23 275.97 152.71 274.37 160.45L271.6 162.51C271.6 162.51 273.09 157.92 273.6 156.64C274.11 155.36 273.85 155.11 273.85 155.11C271.953 157.486 270.752 160.342 270.38 163.36C270.38 163.36 264.95 167.9 264.64 167.58Z" fill="#1976D2"/>
<path opacity="0.1" d="M211.75 337.39C211.75 337.39 228.3 303.05 249.42 319.97C249.42 319.97 253.96 321.49 253.75 326.26C253.75 326.26 251.99 325.36 250.75 329.03C250.287 330.336 249.67 331.581 248.91 332.74C247.891 334.306 246.388 335.496 244.63 336.13C244.63 336.13 235.55 343.32 218.26 338.42C218.26 338.42 213.44 339.25 212.64 338.66L218.16 334.39C218.16 334.39 221.16 338.57 225.34 338.94C225.34 338.94 218.19 334.7 218.96 333.72C219.12 333.52 221.96 331.59 221.96 331.59C221.96 331.59 227.16 338.82 233.67 339.2C233.67 339.2 224.46 335.29 223.04 330.85L227.55 328.19C227.55 328.19 232.67 336.11 240.07 336.81C240.07 336.81 230.59 332.39 228.57 327.67L233.36 325.67C233.36 325.67 238.51 333.29 244.66 333.84C244.66 333.84 234.22 327.63 234.48 325.28C234.48 325.28 238.99 323.69 240.39 323.85C240.39 323.85 244.21 329.23 247.82 329.23C247.82 329.23 241.28 324.34 241.68 323.55C241.68 323.55 248.1 323.05 251.49 324.55C248.441 323.037 245.048 322.347 241.65 322.55C242.994 320.94 244.781 319.761 246.79 319.16C246.79 319.16 243.21 317.79 240.1 322.69C240.1 322.69 235.1 323.28 234.51 323.85C234.51 323.85 236.9 318.59 239.95 316.29C239.95 316.29 235.33 317.23 233.22 324.34L228.37 326.26C228.37 326.26 231.16 319.13 233.73 316.89C233.73 316.89 229.17 318.57 227.19 326.89L222.74 329.44C222.74 329.44 224.68 323.12 227 320C227 320 223.1 322.48 221.49 330.23L218.72 332.23C218.72 332.23 220.22 327.64 220.72 326.36C221.22 325.08 220.97 324.83 220.97 324.83C219.069 327.204 217.867 330.061 217.5 333.08C217.5 333.08 212.06 337.69 211.75 337.39Z" fill="#1976D2"/>
<path opacity="0.1" d="M820.89 784.16C808.193 784.16 797.9 783.009 797.9 781.59C797.9 780.171 808.193 779.02 820.89 779.02C833.587 779.02 843.88 780.171 843.88 781.59C843.88 783.009 833.587 784.16 820.89 784.16Z" fill="#1976D2"/>
<path opacity="0.1" d="M971.6 740.48C958.903 740.48 948.61 739.329 948.61 737.91C948.61 736.491 958.903 735.34 971.6 735.34C984.297 735.34 994.59 736.491 994.59 737.91C994.59 739.329 984.297 740.48 971.6 740.48Z" fill="#1976D2"/>
<path opacity="0.1" d="M706.01 813.17C693.313 813.17 683.02 812.019 683.02 810.6C683.02 809.181 693.313 808.03 706.01 808.03C718.707 808.03 729 809.181 729 810.6C729 812.019 718.707 813.17 706.01 813.17Z" fill="#1976D2"/>
<path opacity="0.1" d="M117.31 749.98C104.613 749.98 94.3201 748.829 94.3201 747.41C94.3201 745.991 104.613 744.84 117.31 744.84C130.007 744.84 140.3 745.991 140.3 747.41C140.3 748.829 130.007 749.98 117.31 749.98Z" fill="#1976D2"/>
<path opacity="0.1" d="M308.62 737.51C295.923 737.51 285.63 736.359 285.63 734.94C285.63 733.521 295.923 732.37 308.62 732.37C321.317 732.37 331.61 733.521 331.61 734.94C331.61 736.359 321.317 737.51 308.62 737.51Z" fill="#1976D2"/>
<path opacity="0.1" d="M432.38 798.33C417.363 798.33 405.19 796.239 405.19 793.66C405.19 791.081 417.363 788.99 432.38 788.99C447.397 788.99 459.57 791.081 459.57 793.66C459.57 796.239 447.397 798.33 432.38 798.33Z" fill="#1976D2"/>
<path opacity="0.1" d="M419.73 314.88C419.73 314.88 405.13 326.83 400.73 327.88C396.33 328.93 393.63 338.25 393.63 338.25" fill="black"/>
</g>
<defs>
<clipPath id="clip0">
<rect width="1022.84" height="813.16" transform="matrix(-1 0 0 1 1022.84 0)" fill="white"/>
</clipPath>
</defs>
</svg>
