<svg width="400" height="400" viewBox="0 0 400 400" fill="none" xmlns="http://www.w3.org/2000/svg">
<circle cx="200" cy="200" r="200" fill="#039BE5"/>
<rect x="187.639" y="75.6325" width="79.0066" height="261.243" rx="8.5" transform="rotate(-16 187.639 75.6325)" fill="white" stroke="white" stroke-width="3"/>
<path d="M90 102C90 96.4772 94.4772 92 100 92H135.5H171C176.523 92 181 96.4772 181 102V319C181 324.523 176.523 329 171 329H100C94.4772 329 90 324.523 90 319V102Z" fill="white"/>
<path d="M90 102C90 96.4772 94.4772 92 100 92H135.5H171C176.523 92 181 96.4772 181 102V319C181 324.523 176.523 329 171 329H100C94.4772 329 90 324.523 90 319V102Z" stroke="#1976D2"/>
</svg>
