<svg width="667" height="667" viewBox="0 0 667 667" fill="none" xmlns="http://www.w3.org/2000/svg">
<path d="M0 666.667H666.667V6.00815e-05H0V666.667Z" fill="url(#paint0_radial)"/>
<path d="M620.004 489.454C620.004 492.723 489.597 495.374 328.733 495.374C167.869 495.374 37.4626 492.723 37.4626 489.454C37.4626 486.185 167.869 483.534 328.733 483.534C489.597 483.534 620.004 486.185 620.004 489.454Z" fill="#093054" fill-opacity="0.41"/>
<path d="M355.609 485.823C355.609 489.195 345.733 491.929 333.549 491.929C321.367 491.929 311.491 489.195 311.491 485.823C311.491 482.451 322.548 478.339 334.732 478.339C346.915 478.339 355.609 482.451 355.609 485.823Z" fill="#4E0A06"/>
<path d="M195.067 425.535C174.665 431.731 155.401 437.581 134.563 436.017L130.267 439.061C151.596 440.671 175.195 434.356 195.843 428.088C218.808 421.112 242.559 413.904 272.02 415.643C297.435 417.145 324.472 425.051 332.307 472.309L334.937 471.873C326.748 422.477 297.096 414.453 272.177 412.981C269.095 412.799 266.08 412.713 263.117 412.713C237.311 412.715 215.869 419.219 195.067 425.535" fill="url(#paint1_radial)"/>
<path d="M356.428 432.156C342.552 441.14 333.259 455.659 331.567 470.991L334.217 471.283C335.823 456.739 344.667 442.949 357.877 434.395C369.8 426.673 390.583 419.587 421.907 429.681C431.855 432.885 440.848 435.844 448.781 438.456C484.287 450.14 506.548 456.764 530.351 458.548L527.849 455.704C504.368 453.943 484.92 447.541 449.615 435.924C441.677 433.309 432.681 430.349 422.725 427.141C411.341 423.476 401.293 422.017 392.507 422.017C376.349 422.019 364.464 426.951 356.428 432.156" fill="url(#paint2_radial)"/>
<path d="M313.386 453.769L246.315 453.389L101.284 477.291L83.4804 484.796H313.386V453.769Z" fill="#4E0A06"/>
<path d="M234.968 436.709C180.499 458.743 148.091 463.859 112.593 463.859C104.031 472.849 91.1427 483.223 91.1427 483.223C91.1427 483.223 177.629 486.073 216.608 477.103C264.491 466.084 291.275 450.173 312.084 483.835C321.531 477.72 333.505 477.715 333.505 477.715C333.505 477.715 334.089 474.152 332.893 468.535C328.687 448.928 306.675 428.68 273.248 428.677C261.751 428.677 248.908 431.071 234.968 436.709Z" fill="url(#paint3_radial)"/>
<path d="M112.593 466.46C148.091 466.46 180.499 461.344 234.969 439.311C289.44 417.278 327.24 444.786 332.893 471.136C333.345 473.258 333.543 475.084 333.613 476.539C333.696 475.058 333.684 472.25 332.893 468.535C327.24 442.183 289.44 414.676 234.969 436.71C180.499 458.742 148.091 463.859 112.593 463.859C104.031 472.85 91.1425 483.223 91.1425 483.223C91.1425 483.223 106.615 472.738 112.593 466.46Z" fill="white"/>
<path d="M116.875 470.709C116.875 470.709 117.403 470.849 118.395 471.111C119.375 471.433 120.873 471.593 122.741 471.897C123.689 471.995 124.737 472.103 125.88 472.221C127.027 472.279 128.267 472.345 129.591 472.413C132.244 472.482 135.236 472.489 138.501 472.421C145.029 472.278 152.631 471.623 160.717 470.565C164.763 470.043 168.923 469.362 173.132 468.59C177.341 467.819 181.596 466.917 185.808 465.853C187.931 465.381 190.016 464.777 192.104 464.207C194.2 463.666 196.248 462.998 198.284 462.353C202.373 461.077 206.384 459.702 210.321 458.514C214.241 457.277 218.061 456.207 221.693 455.218C225.324 454.227 228.773 453.353 231.961 452.567C238.341 451.003 243.731 450.014 247.497 449.333C251.271 448.677 253.448 448.446 253.448 448.446C253.448 448.446 251.303 448.877 247.587 449.767C243.863 450.629 238.592 452.055 232.288 453.81C229.14 454.707 225.737 455.701 222.159 456.818C218.58 457.931 214.817 459.155 210.937 460.427C207.047 461.663 203.088 463.162 198.964 464.451C196.904 465.118 194.832 465.806 192.715 466.366C190.607 466.955 188.497 467.583 186.355 468.069C182.085 469.118 177.78 470.005 173.523 470.758C169.268 471.529 165.048 472.089 160.96 472.555C152.779 473.481 145.088 473.758 138.508 473.701C136.863 473.65 135.285 473.669 133.788 473.565C132.289 473.454 130.869 473.383 129.537 473.257C128.208 473.11 126.964 472.971 125.813 472.845C124.671 472.658 123.621 472.487 122.673 472.334C121.727 472.171 120.891 471.934 120.167 471.766C119.435 471.613 118.837 471.41 118.357 471.229C117.391 470.89 116.875 470.709 116.875 470.709Z" fill="#C6C2A6"/>
<path d="M213.203 455.724C213.203 455.724 214.969 455.056 218.059 453.887C221.165 452.766 225.57 451.064 230.947 449.278C233.637 448.382 236.558 447.431 239.669 446.484C242.781 445.542 246.077 444.576 249.533 443.743C252.99 442.916 256.575 442.08 260.275 441.495C263.967 440.882 267.753 440.396 271.566 440.182C275.377 439.972 279.214 439.964 282.973 440.334C286.727 440.69 290.417 441.316 293.867 442.38C297.311 443.434 300.578 444.73 303.422 446.422C304.158 446.795 304.843 447.236 305.51 447.683C306.178 448.127 306.849 448.543 307.483 448.987C308.687 449.964 309.942 450.794 310.974 451.795C312.026 452.771 313.082 453.654 313.927 454.652C314.801 455.623 315.662 456.51 316.342 457.454C317.039 458.382 317.745 459.204 318.297 460.04C318.849 460.875 319.355 461.642 319.813 462.334C320.738 463.708 321.273 464.907 321.725 465.666C322.15 466.442 322.377 466.856 322.377 466.856C322.377 466.856 322.113 466.464 321.618 465.73C321.106 465.008 320.443 463.892 319.445 462.584C318.946 461.931 318.394 461.208 317.794 460.42C317.194 459.634 316.441 458.87 315.695 458.007C314.969 457.128 314.062 456.316 313.149 455.428C312.262 454.511 311.21 453.678 310.146 452.778C309.106 451.846 307.851 451.095 306.651 450.199C306.019 449.795 305.354 449.42 304.693 449.019C304.034 448.615 303.358 448.218 302.631 447.887C301.918 447.536 301.195 447.182 300.463 446.822C299.706 446.519 298.939 446.212 298.165 445.903C297.401 445.57 296.589 445.335 295.782 445.064C294.97 444.808 294.167 444.5 293.318 444.315C289.986 443.344 286.41 442.875 282.782 442.531C279.146 442.196 275.415 442.235 271.698 442.459C267.978 442.643 264.263 443.091 260.627 443.67C256.99 444.235 253.425 444.935 249.991 445.695C246.561 446.475 243.247 447.267 240.119 448.08C236.99 448.892 234.043 449.719 231.329 450.5C225.895 452.075 221.367 453.388 218.198 454.307C215.019 455.208 213.203 455.724 213.203 455.724Z" fill="#C6C2A6"/>
<path d="M148.556 481.412C148.556 481.412 149.224 481.369 150.476 481.289C151.727 481.199 153.56 481.068 155.895 480.9C160.563 480.557 167.213 479.877 175.169 478.933C179.148 478.459 183.447 477.86 187.983 477.173C192.512 476.445 197.277 475.627 202.184 474.671C207.097 473.747 212.127 472.575 217.212 471.313C222.28 469.996 227.407 468.553 232.389 466.733C234.885 465.871 237.427 464.931 239.919 464.023C242.455 463.168 244.975 462.245 247.517 461.501C252.561 459.872 257.671 458.689 262.656 457.796C267.643 456.853 272.587 456.639 277.24 456.748C279.569 456.92 281.836 457.032 283.993 457.492C286.177 457.772 288.204 458.433 290.164 458.979C291.16 459.204 292.052 459.679 292.963 460.019C293.861 460.393 294.752 460.729 295.592 461.117C297.197 462.045 298.761 462.851 300.144 463.74C301.471 464.711 302.713 465.619 303.861 466.459C304.927 467.399 305.869 468.301 306.737 469.093C307.168 469.493 307.575 469.871 307.959 470.227C308.3 470.624 308.619 470.996 308.916 471.343C309.509 472.035 310.013 472.624 310.423 473.101C311.239 474.053 311.673 474.561 311.673 474.561C311.673 474.561 311.205 474.083 310.329 473.184C309.893 472.735 309.353 472.183 308.72 471.532C308.404 471.208 308.065 470.859 307.703 470.487C307.305 470.152 306.883 469.796 306.436 469.421C305.539 468.677 304.565 467.831 303.475 466.956C302.307 466.185 301.043 465.352 299.693 464.461C298.297 463.656 296.729 462.944 295.129 462.115C294.285 461.797 293.42 461.472 292.533 461.137C291.637 460.835 290.765 460.396 289.788 460.207C287.867 459.736 285.892 459.151 283.763 458.943C281.664 458.556 279.455 458.516 277.195 458.412C272.665 458.444 267.881 458.807 263.009 459.775C258.136 460.708 253.156 461.996 248.175 463.605C245.665 464.353 243.201 465.271 240.692 466.129C238.181 467.057 235.711 467.989 233.152 468.884C228.072 470.709 222.879 472.144 217.749 473.449C215.175 474.064 212.625 474.693 210.08 475.187C207.545 475.731 205.031 476.204 202.552 476.643C197.603 477.56 192.783 478.213 188.213 478.816C183.637 479.373 179.308 479.847 175.304 480.207C167.297 480.948 160.6 481.183 155.919 481.341C153.575 481.405 151.735 481.417 150.48 481.412C149.225 481.412 148.556 481.412 148.556 481.412Z" fill="#C6C2A6"/>
<path d="M313.385 488.636H83.48V484.783H313.385V488.636Z" fill="#9F0C24"/>
<path d="M239.455 462.397C239.455 462.397 240.153 462.022 241.376 461.368C241.983 461.033 242.752 460.688 243.633 460.284C244.509 459.861 245.513 459.425 246.632 459.014C247.739 458.564 248.96 458.145 250.257 457.709C251.544 457.242 252.94 456.874 254.375 456.464C255.825 456.117 257.317 455.716 258.855 455.416C260.389 455.092 261.953 454.794 263.531 454.561C265.103 454.301 266.697 454.194 268.255 454.018C269.821 453.934 271.359 453.784 272.856 453.792C274.351 453.729 275.797 453.805 277.167 453.886C278.535 453.95 279.823 454.146 281.009 454.27C282.188 454.492 283.273 454.645 284.211 454.912C285.144 455.186 285.969 455.372 286.621 455.618C287.912 456.134 288.649 456.429 288.649 456.429C288.649 456.429 287.888 456.212 286.557 455.832C285.896 455.64 285.06 455.524 284.123 455.328C283.183 455.145 282.096 455.081 280.933 454.908C279.755 454.845 278.484 454.714 277.132 454.718C275.78 454.705 274.357 454.716 272.885 454.782C271.411 454.797 269.895 454.972 268.351 455.08C266.815 455.277 265.247 455.412 263.697 455.689C262.137 455.894 260.587 456.162 259.065 456.458C257.54 456.73 256.059 457.102 254.619 457.422C253.199 457.825 251.793 458.101 250.5 458.502C249.196 458.87 247.964 459.225 246.849 459.617C245.723 459.982 244.696 460.329 243.8 460.672C242.896 461.001 242.103 461.282 241.471 461.568C240.188 462.096 239.455 462.397 239.455 462.397Z" fill="#C6C2A6"/>
<path d="M353.281 453.769L420.352 453.389L565.382 477.291L583.186 484.796H353.281V453.769Z" fill="#4E0A06"/>
<path d="M333.775 468.535C332.576 474.152 333.163 477.715 333.163 477.715C333.163 477.715 345.136 477.72 354.581 483.835C375.391 450.173 402.176 466.084 450.059 477.103C489.037 486.073 575.524 483.223 575.524 483.223C575.524 483.223 562.636 472.849 554.073 463.859C518.576 463.859 486.168 458.743 431.697 436.709C417.757 431.071 404.916 428.677 393.419 428.677C359.991 428.68 337.98 448.928 333.775 468.535" fill="url(#paint4_radial)"/>
<path d="M554.073 466.461C518.576 466.461 486.168 461.345 431.698 439.311C377.227 417.278 339.427 444.786 333.773 471.137C333.321 473.258 333.124 475.085 333.053 476.539C332.971 475.058 332.983 472.25 333.773 468.535C339.427 442.183 377.227 414.677 431.698 436.71C486.168 458.742 518.576 463.859 554.073 463.859C562.636 472.85 575.524 483.223 575.524 483.223C575.524 483.223 560.052 472.738 554.073 466.461Z" fill="white"/>
<path d="M549.792 470.709C549.792 470.709 549.276 470.89 548.309 471.229C547.829 471.41 547.232 471.613 546.5 471.766C545.776 471.934 544.94 472.171 543.993 472.334C543.045 472.487 541.996 472.658 540.853 472.845C539.703 472.971 538.459 473.11 537.129 473.257C535.797 473.383 534.377 473.454 532.879 473.565C531.381 473.669 529.804 473.65 528.159 473.701C521.579 473.758 513.888 473.481 505.707 472.555C501.619 472.089 497.399 471.529 493.144 470.758C488.887 470.005 484.581 469.118 480.312 468.069C478.169 467.583 476.06 466.955 473.952 466.366C471.835 465.806 469.763 465.118 467.703 464.451C463.579 463.162 459.62 461.663 455.729 460.427C451.849 459.155 448.087 457.931 444.508 456.818C440.929 455.701 437.527 454.707 434.379 453.81C428.075 452.055 422.804 450.629 419.08 449.767C415.364 448.877 413.219 448.446 413.219 448.446C413.219 448.446 415.396 448.677 419.169 449.333C422.936 450.014 428.325 451.003 434.705 452.567C437.893 453.353 441.343 454.227 444.973 455.218C448.605 456.207 452.425 457.277 456.345 458.514C460.283 459.702 464.293 461.077 468.383 462.353C470.419 462.998 472.467 463.666 474.563 464.207C476.651 464.777 478.736 465.381 480.859 465.853C485.071 466.917 489.325 467.819 493.535 468.59C497.744 469.362 501.904 470.043 505.949 470.565C514.036 471.623 521.637 472.278 528.165 472.421C531.431 472.489 534.423 472.482 537.076 472.413C538.4 472.345 539.64 472.279 540.787 472.221C541.929 472.103 542.977 471.995 543.925 471.897C545.793 471.593 547.292 471.433 548.272 471.111C549.264 470.849 549.792 470.709 549.792 470.709Z" fill="#C6C2A6"/>
<path d="M453.463 455.724C453.463 455.724 451.647 455.208 448.469 454.307C445.299 453.388 440.771 452.075 435.338 450.5C432.623 449.719 429.677 448.892 426.547 448.08C423.419 447.267 420.106 446.475 416.675 445.695C413.242 444.935 409.677 444.235 406.039 443.67C402.403 443.091 398.689 442.643 394.969 442.459C391.251 442.235 387.521 442.196 383.885 442.531C380.257 442.875 376.681 443.344 373.349 444.315C372.499 444.5 371.697 444.808 370.885 445.064C370.078 445.335 369.266 445.57 368.502 445.903C367.727 446.212 366.961 446.519 366.203 446.822C365.471 447.182 364.749 447.536 364.035 447.887C363.309 448.218 362.633 448.615 361.974 449.019C361.313 449.42 360.647 449.795 360.015 450.199C358.815 451.095 357.561 451.846 356.521 452.778C355.457 453.678 354.405 454.511 353.518 455.428C352.605 456.316 351.698 457.128 350.971 458.007C350.226 458.87 349.473 459.634 348.873 460.42C348.273 461.208 347.721 461.931 347.222 462.584C346.223 463.892 345.561 465.008 345.049 465.73C344.554 466.464 344.29 466.856 344.29 466.856C344.29 466.856 344.517 466.442 344.942 465.666C345.394 464.907 345.929 463.708 346.854 462.334C347.311 461.642 347.818 460.875 348.37 460.04C348.922 459.204 349.627 458.382 350.325 457.454C351.005 456.51 351.866 455.623 352.739 454.652C353.585 453.654 354.641 452.771 355.693 451.795C356.725 450.794 357.979 449.964 359.183 448.987C359.818 448.543 360.489 448.127 361.157 447.683C361.823 447.236 362.509 446.795 363.245 446.422C366.089 444.73 369.355 443.434 372.799 442.38C376.25 441.316 379.939 440.69 383.694 440.334C387.453 439.964 391.29 439.972 395.101 440.182C398.914 440.396 402.699 440.882 406.391 441.495C410.091 442.08 413.677 442.916 417.134 443.743C420.59 444.576 423.886 445.542 426.998 446.484C430.109 447.431 433.03 448.382 435.719 449.278C441.097 451.064 445.502 452.766 448.607 453.887C451.698 455.056 453.463 455.724 453.463 455.724Z" fill="#C6C2A6"/>
<path d="M518.111 481.412C518.111 481.412 517.441 481.412 516.187 481.412C514.932 481.417 513.092 481.405 510.748 481.341C506.067 481.183 499.369 480.948 491.363 480.207C487.359 479.847 483.029 479.373 478.453 478.816C473.884 478.213 469.064 477.56 464.115 476.643C461.636 476.204 459.121 475.731 456.587 475.187C454.041 474.693 451.492 474.064 448.917 473.449C443.788 472.144 438.595 470.709 433.515 468.884C430.956 467.989 428.485 467.057 425.975 466.129C423.465 465.271 421.001 464.353 418.492 463.605C413.511 461.996 408.531 460.708 403.657 459.775C398.785 458.807 394.001 458.444 389.472 458.412C387.212 458.516 385.003 458.556 382.904 458.943C380.775 459.151 378.8 459.736 376.879 460.207C375.903 460.396 375.029 460.835 374.133 461.137C373.247 461.472 372.381 461.797 371.537 462.115C369.937 462.944 368.369 463.656 366.973 464.461C365.624 465.352 364.36 466.185 363.192 466.956C362.101 467.831 361.128 468.677 360.231 469.421C359.784 469.796 359.361 470.152 358.964 470.487C358.601 470.859 358.263 471.208 357.947 471.532C357.313 472.183 356.773 472.735 356.337 473.184C355.461 474.083 354.993 474.561 354.993 474.561C354.993 474.561 355.428 474.053 356.244 473.101C356.653 472.624 357.157 472.035 357.751 471.343C358.048 470.996 358.367 470.624 358.708 470.227C359.092 469.871 359.499 469.493 359.929 469.093C360.797 468.301 361.74 467.399 362.805 466.459C363.953 465.619 365.196 464.711 366.523 463.74C367.905 462.851 369.469 462.045 371.075 461.117C371.915 460.729 372.805 460.393 373.704 460.019C374.615 459.679 375.507 459.204 376.503 458.979C378.463 458.433 380.489 457.772 382.673 457.492C384.831 457.032 387.097 456.92 389.427 456.748C394.08 456.639 399.024 456.853 404.011 457.796C408.996 458.689 414.105 459.872 419.149 461.501C421.692 462.245 424.212 463.168 426.748 464.023C429.24 464.931 431.781 465.871 434.277 466.733C439.26 468.553 444.387 469.996 449.455 471.313C454.54 472.575 459.569 473.747 464.483 474.671C469.389 475.627 474.155 476.445 478.684 477.173C483.22 477.86 487.519 478.459 491.497 478.933C499.453 479.877 506.105 480.557 510.772 480.9C513.105 481.068 514.94 481.199 516.191 481.289C517.443 481.369 518.111 481.412 518.111 481.412Z" fill="#C6C2A6"/>
<path d="M353.281 488.636H583.187V484.783H353.281V488.636Z" fill="#9F0C24"/>
<path d="M427.212 462.397C427.212 462.397 426.479 462.096 425.196 461.568C424.564 461.283 423.771 461.001 422.867 460.672C421.971 460.329 420.944 459.983 419.817 459.617C418.701 459.225 417.471 458.871 416.167 458.503C414.873 458.101 413.468 457.825 412.048 457.423C410.608 457.103 409.127 456.731 407.601 456.459C406.08 456.163 404.529 455.895 402.969 455.689C401.42 455.412 399.852 455.277 398.316 455.08C396.772 454.972 395.256 454.797 393.781 454.783C392.309 454.716 390.887 454.705 389.535 454.719C388.183 454.715 386.912 454.845 385.733 454.908C384.571 455.081 383.484 455.145 382.544 455.328C381.607 455.524 380.771 455.64 380.109 455.832C378.779 456.212 378.017 456.429 378.017 456.429C378.017 456.429 378.755 456.135 380.045 455.619C380.697 455.372 381.523 455.187 382.456 454.912C383.393 454.645 384.479 454.492 385.657 454.271C386.844 454.147 388.132 453.951 389.5 453.887C390.869 453.805 392.316 453.729 393.811 453.792C395.308 453.784 396.845 453.935 398.412 454.019C399.969 454.195 401.564 454.301 403.136 454.561C404.713 454.795 406.277 455.092 407.812 455.416C409.349 455.716 410.841 456.117 412.292 456.464C413.727 456.875 415.123 457.243 416.409 457.709C417.707 458.145 418.928 458.564 420.035 459.015C421.153 459.425 422.157 459.861 423.033 460.284C423.915 460.688 424.684 461.033 425.291 461.368C426.513 462.023 427.212 462.397 427.212 462.397Z" fill="#C6C2A6"/>
<path d="M310.717 485.794C313.436 482.447 338.504 470.847 356.927 485.794" stroke="#9F0C24" stroke-width="2.52133" stroke-miterlimit="10"/>
<path d="M310.717 487.561C313.436 489.093 338.504 494.405 356.927 487.561" stroke="#9F0C24" stroke-width="1.70667" stroke-miterlimit="10"/>
<path d="M255.052 329.62C276.703 339.325 296.812 360.821 311.671 390.147C324.979 416.411 332.743 446.68 332.44 471.12L335.107 471.153C335.416 446.304 327.543 415.571 314.049 388.943C298.915 359.073 278.348 337.14 256.143 327.187L255.052 329.62Z" fill="url(#paint5_radial)"/>
<path d="M332.441 471.189L335.105 471.085C333.837 438.392 359.027 368.715 425.419 347.967L424.624 345.423C356.856 366.6 331.145 437.784 332.441 471.189Z" fill="url(#paint6_radial)"/>
<path d="M320.996 204.947C320.996 207.982 318.536 210.442 315.501 210.442C312.467 210.442 310.007 207.982 310.007 204.947C310.007 201.913 312.467 199.453 315.501 199.453C318.536 199.453 320.996 201.913 320.996 204.947Z" fill="#EBF8FF"/>
<path d="M449.432 128.023C449.432 130.678 447.28 132.831 444.624 132.831C441.97 132.831 439.816 130.678 439.816 128.023C439.816 125.368 441.97 123.215 444.624 123.215C447.28 123.215 449.432 125.368 449.432 128.023Z" fill="#EBF8FF"/>
<path d="M542.154 242.036C542.154 244.691 540.002 246.844 537.346 246.844C534.691 246.844 532.538 244.691 532.538 242.036C532.538 239.381 534.691 237.228 537.346 237.228C540.002 237.228 542.154 239.381 542.154 242.036Z" fill="#EBF8FF"/>
<path d="M475.532 354.675C475.532 356.193 474.301 357.422 472.785 357.422C471.268 357.422 470.037 356.193 470.037 354.675C470.037 353.158 471.268 351.929 472.785 351.929C474.301 351.929 475.532 353.158 475.532 354.675Z" fill="#EBF8FF"/>
<path d="M181.571 148.628C181.571 153.18 177.88 156.869 173.329 156.869C168.777 156.869 165.087 153.18 165.087 148.628C165.087 144.076 168.777 140.386 173.329 140.386C177.88 140.386 181.571 144.076 181.571 148.628Z" fill="#EBF8FF"/>
<path d="M121.13 250.965C121.13 252.482 119.899 253.711 118.383 253.711C116.866 253.711 115.635 252.482 115.635 250.965C115.635 249.447 116.866 248.218 118.383 248.218C119.899 248.218 121.13 249.447 121.13 250.965Z" fill="#EBF8FF"/>
<path d="M91.5964 367.038C91.5964 368.555 90.3657 369.785 88.8497 369.785C87.3324 369.785 86.1017 368.555 86.1017 367.038C86.1017 365.521 87.3324 364.291 88.8497 364.291C90.3657 364.291 91.5964 365.521 91.5964 367.038Z" fill="#EBF8FF"/>
<path d="M426.851 163.476C426.851 188.856 406.276 209.43 380.896 209.43C355.517 209.43 334.943 188.856 334.943 163.476C334.943 138.096 355.517 117.521 380.896 117.521C406.276 117.521 426.851 138.096 426.851 163.476Z" fill="#EBF8FF"/>
<path d="M430.954 163.476C430.954 191.121 408.542 213.533 380.897 213.533C353.25 213.533 330.839 191.121 330.839 163.476C330.839 135.829 353.25 113.418 380.897 113.418C408.542 113.418 430.954 135.829 430.954 163.476Z" stroke="#EBF8FF" stroke-width="1.33333" stroke-miterlimit="10"/>
<path d="M365.566 198.041L345.293 202.875C343.978 203.189 342.886 202.117 343.176 200.796L347.636 180.437L365.566 198.041Z" fill="#F28C00"/>
<g opacity="0.380005">
<g opacity="0.380005">
<g opacity="0.380005">
<g opacity="0.380005">
<g opacity="0.380005">
<g opacity="0.380005">
<path opacity="0.380005" d="M348.195 202.184L365.567 198.041L347.636 180.437L346.176 187.1C352.192 190.013 352.828 197.333 348.195 202.184Z" fill="url(#paint7_linear)"/>
</g>
</g>
</g>
</g>
</g>
</g>
<path d="M401.826 121.909C402.784 120.935 404.205 120.572 405.508 120.981C407.936 121.741 412.049 123.577 416.489 127.936C420.912 132.279 422.774 136.295 423.546 138.675C423.965 139.961 423.624 141.373 422.676 142.339L367.85 198.181C367.221 198.823 366.282 199.052 365.43 198.769C363.174 198.02 358.602 196.084 354.137 191.699C349.638 187.284 347.425 182.52 346.534 180.187C346.206 179.325 346.41 178.353 347.056 177.695L401.826 121.909Z" fill="#F28C00"/>
<g opacity="0.440002">
<g opacity="0.440002">
<path opacity="0.440002" d="M407.034 137.57C412.941 143.37 415.04 147.991 415.62 149.526L419.686 145.385C419.105 143.85 417.008 139.227 411.101 133.429C405.17 127.606 400.41 125.515 398.852 124.939L394.785 129.081C396.345 129.655 401.104 131.747 407.034 137.57Z" fill="#1D1D1B"/>
</g>
</g>
<path d="M397.862 125.209C397.862 125.209 403.378 126.736 410.656 133.881C417.933 141.025 419.429 146.384 419.429 146.384L372.668 194.012C372.668 194.012 366.934 191.647 360.452 185.281C353.968 178.916 351.101 172.837 351.101 172.837L397.862 125.209Z" fill="#DE680E"/>
<path d="M374.481 192.165C374.481 192.165 368.748 189.799 362.264 183.434C355.781 177.069 352.915 170.99 352.915 170.99C353.477 170.417 354.305 169.573 354.305 169.573C354.305 169.573 357.172 175.653 363.655 182.018C370.139 188.382 375.872 190.747 375.872 190.747L374.481 192.165Z" fill="#521C00"/>
<path d="M376.928 189.672C376.928 189.672 371.195 187.307 364.711 180.941C358.228 174.576 355.362 168.497 355.362 168.497C355.848 168.003 357.26 166.564 357.26 166.564C357.26 166.564 360.127 172.643 366.61 179.008C373.094 185.373 378.827 187.739 378.827 187.739L376.928 189.672Z" fill="#521C00"/>
<path d="M416.869 148.991C416.869 148.991 414.4 143.302 407.916 136.936C401.433 130.571 395.302 127.816 395.302 127.816C395.189 127.706 393.912 129.234 393.912 129.234C393.912 129.234 400.041 131.988 406.525 138.354C413.008 144.719 415.478 150.408 415.478 150.408L416.869 148.991Z" fill="#521C00"/>
<path d="M414.421 151.484C414.421 151.484 411.952 145.794 405.468 139.429C398.985 133.064 392.855 130.309 392.855 130.309C392.393 130.778 390.956 132.242 390.956 132.242C390.956 132.242 397.087 134.997 403.571 141.362C410.053 147.728 412.524 153.417 412.524 153.417L414.421 151.484Z" fill="#521C00"/>
<g opacity="0.270004">
<g opacity="0.270004">
<path opacity="0.270004" d="M365.43 198.769C366.282 199.053 367.221 198.823 367.85 198.181L372.167 193.784C372.49 193.937 372.669 194.012 372.669 194.012L419.429 146.384C419.429 146.384 419.377 146.193 419.242 145.837L422.675 142.339C423.623 141.373 423.965 139.961 423.546 138.675C423.142 137.428 422.434 135.732 421.222 133.777L359.935 196.2C362.205 197.568 364.175 198.352 365.43 198.769Z" fill="#1D1D1B"/>
</g>
</g>
<g opacity="0.179993">
<g opacity="0.179993">
<path opacity="0.179993" d="M351.348 173.324L347.056 177.696C346.41 178.353 346.205 179.325 346.534 180.187C346.836 180.976 347.289 182.045 347.932 183.284L408.105 121.995C407.113 121.536 406.234 121.209 405.508 120.981C404.205 120.573 402.784 120.935 401.826 121.909L398.406 125.392C398.053 125.261 397.862 125.209 397.862 125.209L351.101 172.837C351.101 172.837 351.184 173.011 351.348 173.324Z" fill="white"/>
</g>
</g>
<g opacity="0.479996">
<g opacity="0.479996">
<path opacity="0.479996" d="M343.419 200.932L346.244 188.451C346.244 188.451 346.482 197.423 343.419 200.932Z" fill="white"/>
</g>
</g>
<path d="M218.075 163.476C218.075 188.856 238.65 209.43 264.03 209.43C289.409 209.43 309.983 188.856 309.983 163.476C309.983 138.096 289.409 117.521 264.03 117.521C238.65 117.521 218.075 138.096 218.075 163.476Z" fill="#EBF8FF"/>
<path d="M213.798 163.476C213.798 191.217 236.288 213.706 264.029 213.706C291.772 213.706 314.261 191.217 314.261 163.476C314.261 135.734 291.772 113.245 264.029 113.245C236.288 113.245 213.798 135.734 213.798 163.476Z" stroke="#EBF8FF" stroke-width="1.31067" stroke-miterlimit="10"/>
<path d="M279.375 163.463C278.838 177.586 271.847 188.784 263.759 188.476C255.672 188.17 249.551 176.472 250.088 162.35C250.626 148.227 257.616 137.028 265.703 137.336C273.791 137.643 279.912 149.34 279.375 163.463Z" stroke="#65E1E5" stroke-width="2.76667" stroke-miterlimit="10"/>
<path d="M274.77 171.617C261.959 181.131 247.079 184.943 241.535 180.132C235.991 175.321 241.882 163.709 254.694 154.196C267.505 144.683 282.385 140.871 287.929 145.681C293.473 150.492 287.581 162.104 274.77 171.617Z" stroke="#65E1E5" stroke-width="2.76667" stroke-miterlimit="10"/>
<path d="M275.402 154.983C287.454 165.441 292.448 177.467 286.554 181.843C280.661 186.219 266.113 181.288 254.061 170.831C242.009 160.372 237.017 148.345 242.909 143.969C248.802 139.593 263.35 144.524 275.402 154.983Z" stroke="#65E1E5" stroke-width="2.76667" stroke-miterlimit="10"/>
<path d="M270.05 163.109C269.942 165.933 267.474 168.133 264.537 168.021C261.6 167.909 259.306 165.529 259.413 162.705C259.521 159.879 261.989 157.681 264.926 157.793C267.864 157.903 270.157 160.285 270.05 163.109Z" fill="#E4051F"/>
<path d="M518.007 221.909C518.007 247.289 497.432 267.864 472.052 267.864C446.673 267.864 426.099 247.289 426.099 221.909C426.099 196.529 446.673 175.955 472.052 175.955C497.432 175.955 518.007 196.529 518.007 221.909Z" fill="#EBF8FF"/>
<path d="M523.136 221.909C523.136 250.121 500.265 272.993 472.052 272.993C443.84 272.993 420.969 250.121 420.969 221.909C420.969 193.697 443.84 170.825 472.052 170.825C500.265 170.825 523.136 193.697 523.136 221.909Z" stroke="#EBF8FF" stroke-width="1.33333" stroke-miterlimit="10"/>
<path d="M451.549 255.863L478.731 261.883C478.731 261.883 477.177 252.337 466.723 249.899C458.327 247.941 451.549 255.863 451.549 255.863Z" fill="#C88300"/>
<path d="M466.723 249.899C465.988 249.727 465.271 249.655 464.564 249.623C471.312 252.874 471.01 257.097 469.258 259.785L478.731 261.882C478.731 261.882 477.176 252.337 466.723 249.899Z" fill="#9E5E0D"/>
<path d="M445.258 236.692C453.665 248.065 468.758 253.236 482.861 248.43C500.306 242.486 509.63 223.524 503.685 206.078C499.354 193.369 488.114 184.97 475.586 183.645" stroke="#C88300" stroke-width="2.76667" stroke-miterlimit="10" stroke-linecap="round"/>
<path d="M497.03 208.13C501.808 222.151 494.316 237.39 480.294 242.168C466.273 246.946 451.034 239.452 446.256 225.431C441.478 211.411 448.972 196.171 462.992 191.394C477.013 186.616 492.253 194.108 497.03 208.13Z" fill="#75CCF4"/>
<g opacity="0.630005">
<g opacity="0.630005">
<path opacity="0.630005" d="M487.088 222.506C486.894 222.9 486.68 223.316 486.448 223.746L474.266 216.695L480.643 205.344L490.7 211.132C490.108 214.918 488.903 218.823 487.088 222.506ZM476.015 235.951L466.519 230.486L472.808 219.29L484.94 226.31C482.939 229.439 480.042 232.963 476.015 235.951ZM463.939 229.002L452.666 222.512C452.851 218.083 453.891 213.587 455.794 209.443L470.234 217.799L463.939 229.002ZM466.131 196.991L478.064 203.859L471.691 215.204L457.151 206.791C458.842 203.843 461.696 199.994 466.131 196.991V196.991ZM489.024 225.236C489.29 224.746 489.536 224.27 489.758 223.82C491.523 220.238 492.747 216.443 493.432 212.704L498.4 215.563C498.344 214.338 498.19 213.108 497.959 211.878L493.884 209.531C494.158 206.822 494.127 204.188 493.796 201.731C492.519 199.848 491.031 198.156 489.36 196.684C490.766 199.806 491.324 203.71 491.06 207.906L482.1 202.75L486.672 194.612C485.848 194.054 485 193.539 484.122 193.076L479.522 201.266L469.075 195.252C472.662 193.447 477.083 192.26 482.47 192.28C480.019 191.194 477.411 190.476 474.719 190.16C471.648 190.871 468.76 192.006 466.11 193.546L462.61 191.531C461.432 191.952 460.312 192.459 459.232 193.022L463.322 195.374C459.852 197.94 456.891 201.276 454.579 205.303L449.155 202.164C448.614 202.996 448.11 203.851 447.664 204.738L453.204 207.944C451.292 212.032 450.167 216.456 449.807 220.867L444.842 218.01C444.899 219.236 445.054 220.467 445.284 221.698L449.672 224.223C449.699 227.648 450.216 230.999 451.19 234.126C452.778 235.994 454.602 237.611 456.603 238.963C454.282 235.215 452.968 230.7 452.683 225.955L462.482 231.595L457.878 239.791C458.732 240.299 459.616 240.751 460.52 241.163L465.06 233.08L473.254 237.795C470.21 239.616 466.627 241.098 462.423 241.958C464.339 242.659 466.34 243.124 468.386 243.375C471.304 242.322 473.89 240.983 476.171 239.474L480.608 242.028C481.787 241.608 482.907 241.102 483.988 240.54L478.815 237.563C482.695 234.467 485.522 230.943 487.516 227.8L493.98 231.54C494.527 230.711 495.035 229.859 495.487 228.975L489.024 225.236Z" fill="#006F9E"/>
</g>
</g>
<g opacity="0.630005">
<g opacity="0.630005">
<path opacity="0.630005" d="M497.03 208.129C496.473 206.493 495.761 204.956 494.937 203.508C497.165 216.291 489.859 229.151 477.19 233.468C464.805 237.689 451.482 232.325 445.246 221.355C445.483 222.717 445.795 224.08 446.255 225.432C451.034 239.452 466.273 246.945 480.294 242.168C494.315 237.389 501.807 222.151 497.03 208.129Z" fill="#006F9E"/>
</g>
</g>
<path d="M569.428 310.728C569.428 336.108 548.853 356.683 523.473 356.683C498.095 356.683 477.52 336.108 477.52 310.728C477.52 285.348 498.095 264.773 523.473 264.773C548.853 264.773 569.428 285.348 569.428 310.728Z" fill="#EBF8FF"/>
<path d="M572.506 310.728C572.506 337.808 550.554 359.76 523.474 359.76C496.395 359.76 474.442 337.808 474.442 310.728C474.442 283.648 496.395 261.696 523.474 261.696C550.554 261.696 572.506 283.648 572.506 310.728Z" stroke="#EBF8FF" stroke-width="1.42267" stroke-miterlimit="10"/>
<path d="M555.313 348.841L516.665 332.153L529.961 290.077L571.293 298.27L555.313 348.841Z" fill="#006DA1"/>
<path d="M474.851 323.614L516.651 332.147L529.945 290.073L490.831 273.043L474.851 323.614Z" fill="#006DA1"/>
<path d="M495.865 277.297L492.127 275.609L477.734 322.155L481.51 322.826" fill="#C79F6E"/>
<path d="M485.048 323.933L481.271 323.262L495.666 276.716L499.403 278.404L485.048 323.933Z" fill="#ECD6A7"/>
<path d="M564.973 299.243L569.007 299.985L554.325 346.442L550.84 344.842" fill="#C79F6E"/>
<path d="M547.301 343.737L550.788 345.337L565.468 298.879L561.434 298.138L547.301 343.737Z" fill="#ECD6A7"/>
<path d="M547.198 344.21L517.206 330.441L529.421 291.788L561.878 297.753L547.198 344.21Z" fill="#FFFDE8"/>
<path d="M534.107 292.649L529.42 291.788L517.206 330.441L547.198 344.211L548.92 338.759C526.93 337.251 524.386 316.471 534.107 292.649Z" fill="#EDE7BF"/>
<path d="M535.311 299.598L552.139 302.839" stroke="#A45E00" stroke-width="1.544" stroke-miterlimit="10" stroke-linecap="round" stroke-linejoin="round"/>
<path d="M533.522 305.26L550.112 309.256" stroke="#A45E00" stroke-width="1.544" stroke-miterlimit="10" stroke-linecap="round" stroke-linejoin="round"/>
<path d="M531.733 310.922L548.084 315.674" stroke="#A45E00" stroke-width="1.544" stroke-miterlimit="10" stroke-linecap="round" stroke-linejoin="round"/>
<path d="M529.944 316.584L546.335 321.209" stroke="#A45E00" stroke-width="1.544" stroke-miterlimit="10" stroke-linecap="round" stroke-linejoin="round"/>
<path d="M528.155 322.246L544.345 327.501" stroke="#A45E00" stroke-width="1.544" stroke-miterlimit="10" stroke-linecap="round" stroke-linejoin="round"/>
<path d="M526.366 327.908L542.239 334.169" stroke="#A45E00" stroke-width="1.544" stroke-miterlimit="10" stroke-linecap="round" stroke-linejoin="round"/>
<path d="M484.733 324.472L517.192 330.437L529.405 291.784L499.413 278.015L484.733 324.472Z" fill="#FFFDE8"/>
<path d="M520.096 294.79L504.462 287.774" stroke="#A45E00" stroke-width="1.544" stroke-miterlimit="10" stroke-linecap="round" stroke-linejoin="round"/>
<path d="M518.307 300.452L502.434 294.191" stroke="#A45E00" stroke-width="1.544" stroke-miterlimit="10" stroke-linecap="round" stroke-linejoin="round"/>
<path d="M516.518 306.114L500.406 300.608" stroke="#A45E00" stroke-width="1.544" stroke-miterlimit="10" stroke-linecap="round" stroke-linejoin="round"/>
<path d="M514.729 311.776L498.657 306.144" stroke="#A45E00" stroke-width="1.544" stroke-miterlimit="10" stroke-linecap="round" stroke-linejoin="round"/>
<path d="M512.94 317.438L496.669 312.435" stroke="#A45E00" stroke-width="1.544" stroke-miterlimit="10" stroke-linecap="round" stroke-linejoin="round"/>
<path d="M511.151 323.1L494.561 319.104" stroke="#A45E00" stroke-width="1.544" stroke-miterlimit="10" stroke-linecap="round" stroke-linejoin="round"/>
<path d="M517.191 330.437L529.406 291.784L524.995 289.758C522.635 310.245 509.262 336.63 487.797 314.776L484.733 324.472L517.191 330.437Z" fill="#EDE7BF"/>
<path d="M529.406 291.783C529.406 291.783 529.279 292.407 529.023 293.489C528.752 294.566 528.407 296.118 527.918 297.955C526.959 301.638 525.555 306.509 524.034 311.342C522.503 316.173 520.855 320.966 519.522 324.531C518.867 326.317 518.256 327.785 517.859 328.822C517.447 329.854 517.191 330.437 517.191 330.437C517.191 330.437 517.316 329.813 517.572 328.731C517.844 327.654 518.187 326.102 518.678 324.263C519.635 320.581 521.04 315.711 522.563 310.878C524.095 306.047 525.746 301.255 527.076 297.69C527.732 295.905 528.342 294.437 528.738 293.399C529.15 292.367 529.406 291.783 529.406 291.783Z" fill="#C79F6E"/>
<path d="M524.706 289.635L522.441 297.094L524.204 296.025L525.333 297.826L527.334 290.787L524.706 289.635Z" fill="#E30613"/>
<path d="M126.919 221.909C126.919 247.289 147.494 267.864 172.874 267.864C198.253 267.864 218.827 247.289 218.827 221.909C218.827 196.529 198.253 175.955 172.874 175.955C147.494 175.955 126.919 196.529 126.919 221.909Z" fill="#EBF8FF"/>
<path d="M123.201 221.909C123.201 249.343 145.441 271.583 172.874 271.583C200.307 271.583 222.547 249.343 222.547 221.909C222.547 194.476 200.307 172.236 172.874 172.236C145.441 172.236 123.201 194.476 123.201 221.909Z" stroke="#EBF8FF" stroke-width="1.34933" stroke-miterlimit="10"/>
<path d="M187.821 250.296L135.218 191.39L139.064 184.873L144.576 179.95L150.66 177.601L203.262 236.506L187.821 250.296Z" fill="#FFD600"/>
<path d="M144.053 180.416L139.063 184.872L135.219 191.391L187.821 250.295L195.048 243.842C171.84 228.632 147.247 198.512 144.053 180.416Z" fill="#F7AB19"/>
<path d="M199.222 240.115L145.259 179.687L144.575 179.951L143.995 180.468L198.13 241.089L199.222 240.115Z" fill="#C67F16"/>
<path d="M139.063 184.873L138.572 185.703L192.512 246.106L193.604 245.131L139.47 184.51L139.063 184.873Z" fill="#C67F16"/>
<path d="M187.821 250.296L207.573 258.164C208.257 258.436 208.958 257.812 208.769 257.101L203.262 236.506L197.618 239.19L191.849 244.342L187.821 250.296Z" fill="#FFEBC5"/>
<path d="M208.67 256.732C202.23 253.253 196.676 247.657 193.443 242.918L191.848 244.342L187.82 250.296L207.572 258.164C208.256 258.436 208.959 257.812 208.768 257.101L208.67 256.732Z" fill="#E4C399"/>
<path d="M208.768 257.101L206.863 249.977C204.295 250.262 201.892 252.12 200.212 255.232L207.572 258.164C208.256 258.436 208.959 257.812 208.768 257.101Z" fill="#6D6442"/>
<path d="M75.4979 310.728C75.4979 336.108 96.0725 356.683 121.453 356.683C146.831 356.683 167.406 336.108 167.406 310.728C167.406 285.348 146.831 264.773 121.453 264.773C96.0725 264.773 75.4979 285.348 75.4979 310.728Z" fill="#EBF8FF"/>
<path d="M71 310.728C71 338.592 93.588 361.18 121.452 361.18C149.316 361.18 171.904 338.592 171.904 310.728C171.904 282.864 149.316 260.276 121.452 260.276C93.588 260.276 71 282.864 71 310.728Z" stroke="#EBF8FF" stroke-width="1.33333" stroke-miterlimit="10"/>
<path d="M126.535 298.246L122.188 277.847L110.099 280.423L114.446 300.822L108.116 344.65C107.706 347.498 110.258 349.886 113.071 349.286L147.546 341.941C150.36 341.341 151.716 338.121 150.18 335.687L126.535 298.246Z" fill="#75CCF4"/>
<path d="M122.76 270.448L106.561 273.9C105.66 274.092 105.085 274.978 105.277 275.879L106.068 279.588C106.26 280.49 107.146 281.064 108.046 280.872L124.245 277.42C125.146 277.228 125.721 276.343 125.529 275.442L124.738 271.732C124.546 270.831 123.661 270.256 122.76 270.448Z" fill="#75CCF4"/>
<path d="M126.999 303.502L116.177 305.808L111.161 344.644C111.021 345.732 111.999 346.633 113.073 346.405L146.384 339.306C147.457 339.078 147.983 337.857 147.411 336.92L126.999 303.502Z" fill="#BCCF00"/>
<path d="M124.638 321.334C124.811 322.145 124.294 322.943 123.482 323.115C122.671 323.289 121.874 322.771 121.701 321.959C121.527 321.149 122.045 320.351 122.857 320.178C123.667 320.006 124.465 320.523 124.638 321.334Z" stroke="#EEE300" stroke-width="1.36933" stroke-miterlimit="10" stroke-linecap="round" stroke-linejoin="round"/>
<path d="M126.049 331.562C126.357 333.01 125.433 334.435 123.985 334.743C122.537 335.052 121.112 334.128 120.804 332.679C120.496 331.231 121.42 329.807 122.868 329.498C124.316 329.19 125.741 330.114 126.049 331.562Z" stroke="#EEE300" stroke-width="2.73867" stroke-miterlimit="10" stroke-linecap="round" stroke-linejoin="round"/>
<path d="M133.421 325.494C133.63 326.48 133.002 327.448 132.017 327.658C131.033 327.868 130.063 327.24 129.854 326.254C129.643 325.269 130.273 324.301 131.257 324.09C132.242 323.881 133.211 324.509 133.421 325.494Z" stroke="#EEE300" stroke-width="1.36933" stroke-miterlimit="10" stroke-linecap="round" stroke-linejoin="round"/>
<g opacity="0.449997">
<g opacity="0.449997">
<path opacity="0.449997" d="M118.13 307.816C118.776 303.358 119.049 301.04 118.43 298.134C117.81 295.229 115.441 281.73 115.441 281.73L122.686 280.186L122.189 277.848L110.098 280.424L114.445 300.822L108.117 344.65C107.705 347.498 110.257 349.885 113.072 349.286L130.664 345.537C109.378 346.356 115.873 323.4 118.13 307.816Z" fill="#40BBCF"/>
</g>
</g>
<path d="M130.37 309.098C130.37 309.098 138.851 325.254 146.391 334.763C144.215 329.888 132.95 312.815 130.37 309.098Z" fill="white"/>
<defs>
<radialGradient id="paint0_radial" cx="0" cy="0" r="1" gradientUnits="userSpaceOnUse" gradientTransform="translate(333.333 333.333) scale(333.333)">
<stop stop-color="#26B7FE"/>
<stop offset="1" stop-color="#039BE5" stop-opacity="0"/>
</radialGradient>
<radialGradient id="paint1_radial" cx="0" cy="0" r="1" gradientUnits="userSpaceOnUse" gradientTransform="translate(232.602 442.511) scale(75.367)">
<stop stop-color="#FFFDF0"/>
<stop offset="1" stop-color="#F3EDC9"/>
</radialGradient>
<radialGradient id="paint2_radial" cx="0" cy="0" r="1" gradientUnits="userSpaceOnUse" gradientTransform="translate(430.959 446.65) scale(72.4066)">
<stop stop-color="#FFFDF0"/>
<stop offset="1" stop-color="#F3EDC9"/>
</radialGradient>
<radialGradient id="paint3_radial" cx="0" cy="0" r="1" gradientUnits="userSpaceOnUse" gradientTransform="translate(216.077 458.508) rotate(9.39547) scale(139.505)">
<stop stop-color="#FFFDF0"/>
<stop offset="1" stop-color="#F3EDC9"/>
</radialGradient>
<radialGradient id="paint4_radial" cx="0" cy="0" r="1" gradientUnits="userSpaceOnUse" gradientTransform="translate(450.59 458.508) rotate(170.605) scale(139.505)">
<stop stop-color="#FFFDF0"/>
<stop offset="1" stop-color="#F3EDC9"/>
</radialGradient>
<radialGradient id="paint5_radial" cx="0" cy="0" r="1" gradientUnits="userSpaceOnUse" gradientTransform="translate(295.083 399.17) scale(58.2418)">
<stop stop-color="#FFFDF0"/>
<stop offset="1" stop-color="#F3EDC9"/>
</radialGradient>
<radialGradient id="paint6_radial" cx="0" cy="0" r="1" gradientUnits="userSpaceOnUse" gradientTransform="translate(378.906 408.306) scale(55.3063)">
<stop stop-color="#FFFDF0"/>
<stop offset="1" stop-color="#F3EDC9"/>
</radialGradient>
<linearGradient id="paint7_linear" x1="357.949" y1="189.676" x2="343.472" y2="192.034" gradientUnits="userSpaceOnUse">
<stop stop-color="#1D1D1B"/>
<stop offset="1" stop-color="#1D1D1B"/>
</linearGradient>
</defs>
</svg>
