<?xml version="1.0" standalone="no"?>
<!DOCTYPE svg PUBLIC "-//W3C//DTD SVG 20010904//EN"
 "http://www.w3.org/TR/2001/REC-SVG-20010904/DTD/svg10.dtd">
<svg version="1.0" xmlns="http://www.w3.org/2000/svg"
 width="500.000000pt" height="500.000000pt" viewBox="0 0 500.000000 500.000000"
 preserveAspectRatio="xMidYMid meet">

<g transform="translate(0.000000,500.000000) scale(0.100000,-0.100000)"
fill="#000000" stroke="none">
<path d="M0 2500 l0 -2500 2500 0 2500 0 0 2500 0 2500 -2500 0 -2500 0 0
-2500z m4098 1465 c99 -31 182 -84 253 -163 237 -262 186 -676 -108 -872 -312
-209 -735 -74 -870 278 -31 82 -43 242 -23 331 22 105 76 199 159 281 125 124
232 168 408 169 82 1 117 -4 181 -24z m-2348 -1435 l0 -300 -50 0 c-35 0 -52
4 -56 15 -5 12 -12 11 -42 -5 -64 -35 -135 -20 -185 39 -75 89 -58 290 30 355
40 29 114 33 158 8 l35 -21 0 104 0 105 55 0 55 0 0 -300z m-1038 269 c40 -9
63 -21 94 -53 39 -38 70 -108 58 -128 -3 -4 -27 -8 -54 -8 -48 0 -50 1 -70 40
-30 58 -89 76 -149 45 -45 -23 -61 -69 -61 -180 0 -111 16 -157 61 -180 34
-18 98 -19 134 -3 22 10 25 17 25 60 l0 48 -55 0 -55 0 0 45 0 45 115 0 115 0
0 -114 0 -114 -31 -26 c-71 -60 -224 -72 -310 -25 -91 51 -136 158 -126 296 8
111 52 194 122 231 61 32 110 37 187 21z m2418 -22 c88 -45 138 -162 127 -299
-11 -125 -64 -206 -161 -243 -81 -31 -195 -5 -253 57 -48 51 -68 116 -68 223
0 90 3 106 28 158 61 124 201 169 327 104z m504 19 c111 -33 167 -116 174
-257 6 -114 -14 -185 -69 -244 -98 -106 -282 -95 -361 22 -39 58 -52 110 -52
203 1 107 28 174 91 229 65 58 133 72 217 47z m-1058 -11 c28 -8 62 -28 78
-44 52 -54 44 -167 -13 -203 -17 -10 -16 -14 20 -48 36 -34 39 -41 39 -91 0
-131 -59 -167 -277 -168 l-143 -1 0 285 0 285 123 0 c80 0 141 -5 173 -15z
m1444 -107 l5 -118 90 120 90 119 73 1 c39 0 72 -2 72 -3 0 -2 -41 -55 -91
-118 -50 -63 -93 -120 -96 -127 -3 -7 7 -32 23 -55 15 -23 61 -93 101 -154
l73 -113 -73 0 -72 0 -69 110 c-37 61 -71 110 -75 110 -4 0 -17 -13 -29 -30
-18 -24 -22 -43 -22 -110 l0 -80 -65 0 -65 0 0 285 0 286 63 -3 62 -3 5 -117z
m-2789 -41 c56 -30 87 -88 91 -172 l3 -60 -132 -3 c-73 -1 -133 -5 -133 -8 0
-15 32 -62 45 -68 36 -13 102 -6 129 15 l26 20 25 -28 c13 -15 24 -35 22 -42
-1 -8 -27 -28 -57 -44 -49 -26 -62 -28 -119 -24 -145 11 -224 142 -181 299 32
115 173 172 281 115z m903 -10 c49 -38 68 -79 74 -159 l5 -68 -136 0 c-131 0
-135 -1 -130 -20 15 -56 108 -78 169 -41 l32 19 28 -30 29 -29 -32 -29 c-80
-71 -210 -65 -289 14 -99 98 -73 294 48 355 62 32 151 26 202 -12z m419 -564
c-26 -5 -31 -23 -8 -23 8 0 15 -4 15 -10 0 -5 -7 -10 -15 -10 -24 0 -17 -28 8
-33 16 -3 13 -5 -10 -6 -33 -1 -33 0 -33 44 0 44 0 45 33 44 23 -1 26 -3 10
-6z m225 -20 c3 -19 -1 -23 -22 -23 -19 0 -26 -5 -26 -20 0 -11 -4 -20 -10
-20 -5 0 -10 21 -10 46 0 45 0 45 33 42 24 -2 33 -8 35 -25z m100 20 c-32 -5
-38 -23 -8 -23 11 0 20 -4 20 -10 0 -5 -9 -10 -21 -10 -28 0 -19 -23 12 -31
21 -6 21 -7 -8 -8 -32 -1 -33 0 -33 44 0 44 0 45 33 44 30 -2 30 -2 5 -6z
m129 -20 c-3 -15 -1 -36 4 -45 14 -26 -6 -22 -24 5 l-15 22 -10 -25 c-10 -22
-11 -20 -11 23 -1 46 0 47 30 47 29 0 31 -2 26 -27z m128 2 c0 -13 -8 -21 -22
-23 -15 -2 -23 -10 -23 -23 0 -10 -4 -19 -10 -19 -5 0 -10 21 -10 46 0 45 0
45 33 42 24 -2 32 -8 32 -23z m77 -12 c4 -53 31 -51 39 2 l7 40 -2 -45 c-1
-36 -5 -46 -20 -49 -25 -4 -46 24 -46 61 0 42 18 34 22 -9z m168 28 c0 -5 -9
-7 -20 -4 -12 3 -20 0 -20 -7 0 -6 9 -14 19 -17 26 -7 33 -29 16 -43 -18 -15
-47 -9 -53 10 -5 13 -3 13 12 1 11 -10 20 -11 27 -4 7 7 2 16 -15 27 -36 23
-34 46 4 46 17 0 30 -4 30 -9z m-730 -41 c0 -5 -7 -10 -15 -10 -8 0 -15 5 -15
10 0 6 7 10 15 10 8 0 15 -4 15 -10z"/>
<path d="M1542 2563 c-32 -6 -52 -53 -52 -123 0 -90 19 -120 78 -120 55 0 72
27 72 119 0 103 -27 137 -98 124z"/>
<path d="M2985 2703 c-27 -7 -54 -32 -73 -68 -25 -47 -22 -198 5 -251 46 -87
156 -85 199 3 24 50 25 204 2 248 -29 55 -80 81 -133 68z"/>
<path d="M3520 2692 c-52 -26 -70 -70 -70 -175 0 -99 14 -143 56 -176 23 -19
38 -22 74 -18 79 9 116 82 108 212 -6 88 -29 138 -73 159 -42 20 -52 20 -95
-2z"/>
<path d="M2400 2629 l0 -71 64 4 c73 4 106 25 106 67 0 50 -34 71 -114 71
l-56 0 0 -71z"/>
<path d="M2400 2406 l0 -76 68 0 c86 0 112 16 112 69 0 55 -24 73 -110 79
l-70 5 0 -77z"/>
<path d="M1104 2559 c-20 -10 -44 -48 -44 -69 0 -6 34 -10 75 -10 67 0 75 2
75 19 0 46 -63 81 -106 60z"/>
<path d="M1993 2560 c-23 -10 -43 -39 -43 -64 0 -13 13 -16 68 -16 38 0 71 3
75 6 12 12 -16 66 -40 75 -28 11 -31 11 -60 -1z"/>
<path d="M2730 2045 c0 -10 7 -15 18 -13 21 4 19 22 -2 26 -10 2 -16 -3 -16
-13z"/>
<path d="M2960 2045 c0 -10 7 -15 18 -13 21 4 19 22 -2 26 -10 2 -16 -3 -16
-13z"/>
<path d="M3090 2045 c0 -8 7 -15 15 -15 8 0 15 7 15 15 0 8 -7 15 -15 15 -8 0
-15 -7 -15 -15z"/>
</g>
</svg>
